<svg width="25" height="24" viewBox="0 0 25 24" fill="none" xmlns="http://www.w3.org/2000/svg">
<path d="M2.65755 14.2854C2.05236 13.6788 1.7125 12.8569 1.7125 12C1.7125 11.1431 2.05236 10.3212 2.65755 9.71457L10.9174 1.45389C11.0736 1.29209 11.1601 1.07538 11.1582 0.850441C11.1562 0.625504 11.066 0.410333 10.9069 0.251272C10.7479 0.0922111 10.5327 0.00198708 10.3077 3.24307e-05C10.0828 -0.00192222 9.8661 0.0845488 9.7043 0.240821L1.44706 8.5015C0.520421 9.43001 0 10.6882 0 12C0 13.3118 0.520421 14.57 1.44706 15.4985L9.70773 23.7592C9.86954 23.9155 10.0862 24.0019 10.3112 24C10.5361 23.998 10.7513 23.9078 10.9103 23.7487C11.0694 23.5897 11.1596 23.3745 11.1616 23.1496C11.1635 22.9246 11.0771 22.7079 10.9208 22.5461L2.65755 14.2854Z" fill="#17191F"/>
<path d="M23.1827 11.1421H4.30898C4.08146 11.1421 3.86325 11.2325 3.70236 11.3934C3.54147 11.5542 3.45109 11.7725 3.45109 12C3.45109 12.2275 3.54147 12.4457 3.70236 12.6066C3.86325 12.7675 4.08146 12.8579 4.30898 12.8579H23.1827C23.4102 12.8579 23.6284 12.7675 23.7893 12.6066C23.9502 12.4457 24.0406 12.2275 24.0406 12C24.0406 11.7725 23.9502 11.5542 23.7893 11.3934C23.6284 11.2325 23.4102 11.1421 23.1827 11.1421Z" fill="#17191F"/>
</svg>
