<svg width="21" height="12" viewBox="0 0 21 12" fill="none" xmlns="http://www.w3.org/2000/svg">
<path d="M3.8608 12H0.4048C0.331066 12 0.258733 11.9799 0.195649 11.942C0.132564 11.9041 0.0811339 11.8497 0.046937 11.7848C0.0127401 11.7198 -0.00291876 11.6468 0.0016589 11.5737C0.00623656 11.5005 0.0308759 11.43 0.0729047 11.3698L3.82143 5.99999L0.0729047 0.631434C0.0305276 0.571209 0.00559939 0.500575 0.00083821 0.427234C-0.00392297 0.353893 0.0116657 0.28066 0.0459043 0.215521C0.080143 0.150382 0.131717 0.095837 0.195004 0.0578328C0.258291 0.0198285 0.33086 -0.000175886 0.4048 1.16513e-06H3.8608C3.92604 -1.37666e-05 3.9903 0.0156793 4.0481 0.0457373C4.1059 0.0757952 4.15552 0.119323 4.1927 0.172598L8.10074 5.7712C8.14763 5.83839 8.17276 5.91822 8.17276 5.99999C8.17276 6.08177 8.14763 6.16159 8.10074 6.22878L4.1927 11.8274C4.15552 11.8807 4.1059 11.9242 4.0481 11.9542C3.9903 11.9843 3.92604 12 3.8608 12ZM1.17662 11.1972H3.65006L7.27744 5.99999L3.64955 0.802776H1.17611L4.64499 5.7712C4.69188 5.83839 4.71701 5.91822 4.71701 5.99999C4.71701 6.08177 4.69188 6.16159 4.64499 6.22878L1.17662 11.1972Z" fill="#FFC000"/>
<path d="M10.272 12H6.81697C6.74332 11.9998 6.67112 11.9796 6.60818 11.9416C6.54524 11.9036 6.49396 11.8492 6.45989 11.7843C6.42581 11.7194 6.41024 11.6465 6.41486 11.5734C6.41948 11.5004 6.44411 11.4299 6.48609 11.3698L10.2336 5.99999L6.48609 0.631429C6.44407 0.571229 6.41943 0.500746 6.41485 0.427621C6.41026 0.354495 6.4259 0.281515 6.46006 0.216593C6.49423 0.151671 6.54562 0.0972822 6.60867 0.0593224C6.67172 0.0213627 6.74402 0.00128015 6.81773 0.00125123H10.272C10.3372 0.0012363 10.4015 0.0169286 10.4593 0.0469866C10.5171 0.0770445 10.5667 0.120573 10.6039 0.173848L14.5122 5.7712C14.559 5.83839 14.5842 5.91821 14.5842 5.99999C14.5842 6.08176 14.559 6.16159 14.5122 6.22878L10.6049 11.8274C10.5676 11.8808 10.5178 11.9244 10.4598 11.9545C10.4018 11.9845 10.3374 12.0002 10.272 12ZM7.58778 11.1972H10.0612L13.6896 5.99999L10.0617 0.802771H7.58828L11.0569 5.7712C11.1038 5.83839 11.1289 5.91821 11.1289 5.99999C11.1289 6.08176 11.1038 6.16159 11.0569 6.22878L7.58778 11.1972Z" fill="white"/>
<path d="M16.688 12H13.2318C13.1581 11.9999 13.0858 11.9799 13.0227 11.9419C12.9597 11.9039 12.9083 11.8496 12.8741 11.7846C12.84 11.7197 12.8243 11.6467 12.8289 11.5736C12.8335 11.5005 12.8581 11.43 12.9002 11.3698L16.6484 5.99999L12.9002 0.631429C12.8581 0.571229 12.8335 0.500746 12.8289 0.42762C12.8243 0.354495 12.84 0.281515 12.8741 0.216593C12.9083 0.151671 12.9597 0.0972821 13.0227 0.0593224C13.0858 0.0213627 13.1581 0.00128014 13.2318 0.00125122H16.688C16.7532 0.0012768 16.8175 0.0169885 16.8752 0.0470447C16.933 0.077101 16.9825 0.120608 17.0197 0.173848L20.928 5.7712C20.9749 5.83839 21 5.91821 21 5.99999C21 6.08176 20.9749 6.16159 20.928 6.22878L17.0197 11.8274C16.9825 11.8806 16.933 11.9241 16.8752 11.9542C16.8175 11.9842 16.7532 11.9999 16.688 12ZM14.0036 11.1972H16.477L20.1047 5.99999L16.4765 0.802771H14.0031L17.4717 5.7712C17.5186 5.83839 17.5438 5.91821 17.5438 5.99999C17.5438 6.08176 17.5186 6.16159 17.4717 6.22878L14.0036 11.1972Z" fill="#FFC000"/>
</svg>
