<svg width="74" height="80" viewBox="0 0 74 80" fill="none" xmlns="http://www.w3.org/2000/svg">
<path d="M71.8388 35.7825V39.1565C71.8388 40.3108 70.9743 41.1987 69.8505 41.1987H66.2196C65.3551 40.9323 64.4907 40.8435 63.5397 40.8435C63.4533 40.8435 63.3668 40.8435 63.2804 40.8435C62.7617 40.4883 62.4159 39.8668 62.4159 39.1565V35.7825C62.4159 34.6282 63.3668 33.7403 64.4907 33.7403H69.9369C70.9743 33.6515 71.8388 34.6282 71.8388 35.7825ZM26.1939 1.68702C26.5397 0.53275 26.972 0 27.6636 0H46.5094C47.2009 0 47.5467 0.355164 47.979 1.59823L49.708 8.87902C45.9907 8.25749 41.6682 7.81355 36.9136 7.63596C32.1589 7.81355 27.8365 8.25749 24.2056 8.87902L26.1939 1.68702ZM10.3738 23.1743C10.4603 22.8191 10.5467 22.3751 10.6332 21.9312C11.2383 18.646 12.0164 14.1176 15.8201 12.2531C17.5491 11.3652 24.0327 9.85572 24.0327 9.85572C27.75 9.1454 32.2453 8.70145 37 8.52387C44.6939 8.52387 56.4509 11.4539 58.2664 12.2531C62.0701 14.1176 62.8481 18.646 63.4533 21.9312C63.5397 22.3751 63.6262 22.7303 63.7126 23.1743C64.1449 25.2164 64.6636 29.0344 65.2687 32.7636H64.4907C63.7126 32.7636 62.9346 33.1188 62.4159 33.6515C61.8972 30.2775 61.3785 26.7259 61.0327 24.8613C60.4276 21.8424 60.0818 16.9589 56.0187 15.0056C52.215 13.141 45.0397 11.9867 37.0864 11.6315C29.1332 11.8979 22.0444 13.141 18.1542 15.0056C14.1776 16.9589 13.7453 21.8424 13.1402 24.8613C12.7944 26.7259 12.2757 30.2775 11.757 33.6515C11.2383 33.1188 10.4603 32.7636 9.68224 32.7636H8.81776C9.4229 29.0344 9.94159 25.2164 10.3738 23.1743ZM2.16122 35.7825C2.16122 34.6282 3.11215 33.7403 4.14954 33.7403H9.59579C10.7196 33.7403 11.5841 34.717 11.5841 35.7825V39.1565C11.5841 39.8668 11.2383 40.4883 10.7196 40.8435C10.6332 40.8435 10.5467 40.8435 10.4603 40.8435C9.50934 40.8435 8.64486 41.0211 7.78038 41.1987H4.14954C3.0257 41.1987 2.16122 40.3108 2.16122 39.1565V35.7825ZM0 53.4517C0 48.5683 2.76635 44.3063 6.57009 42.6193C6.57009 42.7081 7.52103 42.2642 7.52103 42.2642C7.69392 42.1754 7.78037 42.1754 7.95327 42.1754C7.95327 42.1754 12.1028 41.465 13.8318 42.3529L15.6472 43.2409C18.8458 45.283 21.0935 49.101 21.0935 53.4517V61.8868H5.96495V61.798C5.7056 61.798 5.35981 61.798 5.10046 61.798C5.10046 61.8868 5.10046 61.8868 5.10046 61.9756H0.0864407V53.4517H0ZM17.3762 75.2053C17.3762 77.869 15.3014 80 12.7079 80H10.2009C7.60748 80 5.53271 77.869 5.53271 75.2053V69.3452H17.3762V75.2053ZM25.5023 68.4573H2.93925C1.29672 68.4573 0 67.1254 0 65.4384V63.0411H25.5023V68.4573ZM47.6332 70.0555C47.6332 70.5882 47.2009 71.121 46.5958 71.121H27.4042C26.7991 71.121 26.3668 70.677 26.3668 70.0555V69.7003H47.5467V70.0555H47.6332ZM47.6332 68.4573H26.4533V63.0411H47.6332V68.4573ZM47.6332 61.4428H26.4533V61.0877C26.4533 60.4661 26.8855 60.0222 27.4907 60.0222H46.6823C47.2009 60.0222 47.7196 60.4661 47.7196 61.0877V61.4428H47.6332ZM46.5958 59.1343H27.4042C26.3668 59.1343 25.5023 60.0222 25.5023 61.0877V61.798H21.9579V53.3629C21.9579 49.1898 20.0561 45.4606 17.2033 43.1521L16.0794 42.2642C21.6121 37.7359 28.9603 34.8946 37 34.8946C45.0397 34.8946 52.3879 37.6471 57.9206 42.2642L56.7967 43.1521C53.9439 45.4606 52.0421 49.1898 52.0421 53.3629V61.798H48.4977V61.0877C48.4977 60.0222 47.6332 59.1343 46.5958 59.1343ZM68.4673 75.2053C68.4673 77.869 66.3925 80 63.7991 80H61.2921C58.6986 80 56.6238 77.869 56.6238 75.2053V69.3452H68.4673V75.2053ZM74 65.4384C74 67.1254 72.7033 68.4573 71.0608 68.4573H48.4977V63.0411H74V65.4384ZM74 61.8868C74 61.8868 68.1215 61.798 68.1215 61.8868H52.9065V53.4517C52.9065 49.0122 55.0678 45.1942 58.3528 43.2409L60.1682 42.3529C61.0327 42.0866 61.9837 41.8202 62.9346 41.8202C63.3668 41.9978 63.7991 42.1754 64.2313 42.1754H65.9603C66.1332 42.1754 66.2196 42.2642 66.3925 42.2642C66.3925 42.2642 67.3435 42.7081 67.3435 42.6193C71.2337 44.3951 73.9136 48.5683 73.9136 53.4517V61.8868H74Z" fill="#17191F"/>
<path d="M24.8106 49.3672H49.2756C49.8807 49.3672 50.3994 48.8345 50.3994 48.3017C50.3994 47.6802 49.8807 47.1475 49.2756 47.1475H24.8106C24.2055 47.1475 23.6868 47.6802 23.6868 48.3017C23.6868 48.9233 24.2055 49.3672 24.8106 49.3672Z" fill="#FFC000"/>
<path d="M24.8106 53.0073H49.2756C49.8807 53.0073 50.3994 52.4745 50.3994 51.853C50.3994 51.2315 49.8807 50.6987 49.2756 50.6987H24.8106C24.2055 50.6987 23.6868 51.2315 23.6868 51.853C23.6868 52.5633 24.2055 53.0073 24.8106 53.0073Z" fill="#FFC000"/>
<path d="M6.39687 57.7132C7.43426 58.4236 8.73098 58.8675 10.0277 58.8675C13.5721 58.8675 16.4249 55.9374 16.4249 52.297C16.4249 49.4558 14.6095 46.9696 12.1025 46.0817C11.7567 45.9042 11.1515 45.8154 11.1515 45.8154C10.7193 45.7266 10.3735 45.7266 9.94127 45.7266C6.39688 45.7266 3.54407 48.6566 3.54407 52.297C3.54407 54.1616 4.32211 55.9374 5.53239 57.0917C5.61884 57.0917 5.96463 57.4469 6.39687 57.7132Z" fill="#FFC000"/>
<path d="M63.4532 45.7266C63.1939 45.7266 62.9345 45.7266 62.6752 45.8154L61.7243 45.9929C59.0443 46.792 57.056 49.367 57.056 52.297C57.056 55.9374 59.9088 58.8675 63.4532 58.8675C65.0093 58.8675 66.3925 58.3348 67.5163 57.3581L68.2944 56.6478C69.3317 55.4935 69.9369 53.9841 69.9369 52.2083C69.9369 48.6566 67.0841 45.7266 63.4532 45.7266Z" fill="#FFC000"/>
<path d="M45.3853 1.86426H43.9156V6.83652H45.3853V1.86426Z" fill="#FFC000"/>
<path d="M33.11 1.86426H28.6146V3.10732H30.1707V6.83652H31.6403V3.10732H33.11V1.86426Z" fill="#FFC000"/>
<path d="M38.1237 6.83652L36.3083 1.86426H34.6658L32.8503 6.83652H34.4064L34.6658 6.0374H36.3947L36.6541 6.83652H38.1237ZM34.9251 4.88312L35.4438 3.10732L35.9625 4.88312H34.9251Z" fill="#FFC000"/>
<path d="M39.7662 6.83652L40.7171 5.23829L41.6681 6.83652H43.397L41.7545 4.26159L43.2241 1.86426H41.5816L40.8036 3.37369L39.9391 1.86426H38.2966L39.7662 4.26159L38.1237 6.83652H39.7662Z" fill="#FFC000"/>
<path d="M50.313 55.4941C50.313 54.8726 49.7943 54.3398 49.1892 54.3398H24.7242C24.1191 54.3398 23.6004 54.8726 23.6004 55.4941C23.6004 56.1156 24.1191 56.6484 24.7242 56.6484H49.1892C49.7943 56.6484 50.313 56.1156 50.313 55.4941Z" fill="#FFC000"/>
</svg>
